{
    "asset" : {
        "generator" : "Khronos glTF Blender I/O v1.4.40",
        "version" : "2.0"
    },
    "scene" : 0,
    "scenes" : [
        {
            "name" : "Scene",
            "nodes" : [
                0,
                1,
                2,
                3,
                4,
                5
            ]
        }
    ],
    "nodes" : [
        {
            "mesh" : 0,
            "name" : "tile_grass"
        },
        {
            "mesh" : 1,
            "name" : "tree",
            "translation" : [
                1,
                0,
                0
            ]
        },
        {
            "mesh" : 2,
            "name" : "bush",
            "translation" : [
                2,
                0,
                0
            ]
        },
        {
            "mesh" : 3,
            "name" : "tile_brick",
            "translation" : [
                0,
                0,
                -2
            ]
        },
        {
            "mesh" : 4,
            "name" : "tile_swamp",
            "translation" : [
                1,
                0,
                -2
            ]
        },
        {
            "mesh" : 5,
            "name" : "tombstone",
            "translation" : [
                3,
                0,
                -2
            ]
        }
    ],
    "materials" : [
        {
            "alphaCutoff" : 0.5,
            "alphaMode" : "MASK",
            "doubleSided" : true,
            "name" : "trim_mat",
            "pbrMetallicRoughness" : {
                "baseColorTexture" : {
                    "index" : 0,
                    "texCoord" : 0
                },
                "metallicFactor" : 0,
                "roughnessFactor" : 0.5
            }
        }
    ],
    "meshes" : [
        {
            "name" : "Cube",
            "primitives" : [
                {
                    "attributes" : {
                        "POSITION" : 0,
                        "NORMAL" : 1,
                        "TEXCOORD_0" : 2
                    },
                    "indices" : 3,
                    "material" : 0
                }
            ]
        },
        {
            "name" : "Cylinder",
            "primitives" : [
                {
                    "attributes" : {
                        "POSITION" : 4,
                        "NORMAL" : 5,
                        "TEXCOORD_0" : 6
                    },
                    "indices" : 7,
                    "material" : 0
                }
            ]
        },
        {
            "name" : "Cylinder.001",
            "primitives" : [
                {
                    "attributes" : {
                        "POSITION" : 8,
                        "NORMAL" : 9,
                        "TEXCOORD_0" : 10
                    },
                    "indices" : 11,
                    "material" : 0
                }
            ]
        },
        {
            "name" : "Cube.002",
            "primitives" : [
                {
                    "attributes" : {
                        "POSITION" : 12,
                        "NORMAL" : 13,
                        "TEXCOORD_0" : 14
                    },
                    "indices" : 3,
                    "material" : 0
                }
            ]
        },
        {
            "name" : "Cube.003",
            "primitives" : [
                {
                    "attributes" : {
                        "POSITION" : 15,
                        "NORMAL" : 16,
                        "TEXCOORD_0" : 17
                    },
                    "indices" : 3,
                    "material" : 0
                }
            ]
        },
        {
            "name" : "Cube.004",
            "primitives" : [
                {
                    "attributes" : {
                        "POSITION" : 18,
                        "NORMAL" : 19,
                        "TEXCOORD_0" : 20
                    },
                    "indices" : 21,
                    "material" : 0
                }
            ]
        }
    ],
    "textures" : [
        {
            "sampler" : 0,
            "source" : 0
        }
    ],
    "images" : [
        {
            "mimeType" : "image/png",
            "name" : "trim",
            "uri" : "material_textures/trim.png"
        }
    ],
    "accessors" : [
        {
            "bufferView" : 0,
            "componentType" : 5126,
            "count" : 20,
            "max" : [
                0.5,
                0.5,
                0.5
            ],
            "min" : [
                -0.5,
                -0.5,
                -0.5
            ],
            "type" : "VEC3"
        },
        {
            "bufferView" : 1,
            "componentType" : 5126,
            "count" : 20,
            "type" : "VEC3"
        },
        {
            "bufferView" : 2,
            "componentType" : 5126,
            "count" : 20,
            "type" : "VEC2"
        },
        {
            "bufferView" : 3,
            "componentType" : 5123,
            "count" : 30,
            "type" : "SCALAR"
        },
        {
            "bufferView" : 4,
            "componentType" : 5126,
            "count" : 64,
            "max" : [
                0.5500389933586121,
                1.5,
                0.4055320620536804
            ],
            "min" : [
                -0.5496510863304138,
                -0.5,
                -0.40274426341056824
            ],
            "type" : "VEC3"
        },
        {
            "bufferView" : 5,
            "componentType" : 5126,
            "count" : 64,
            "type" : "VEC3"
        },
        {
            "bufferView" : 6,
            "componentType" : 5126,
            "count" : 64,
            "type" : "VEC2"
        },
        {
            "bufferView" : 7,
            "componentType" : 5123,
            "count" : 108,
            "type" : "SCALAR"
        },
        {
            "bufferView" : 8,
            "componentType" : 5126,
            "count" : 16,
            "max" : [
                0.5500389933586121,
                0.5,
                0.4055320620536804
            ],
            "min" : [
                -0.5496510863304138,
                -0.5,
                -0.40274426341056824
            ],
            "type" : "VEC3"
        },
        {
            "bufferView" : 9,
            "componentType" : 5126,
            "count" : 16,
            "type" : "VEC3"
        },
        {
            "bufferView" : 10,
            "componentType" : 5126,
            "count" : 16,
            "type" : "VEC2"
        },
        {
            "bufferView" : 11,
            "componentType" : 5123,
            "count" : 24,
            "type" : "SCALAR"
        },
        {
            "bufferView" : 12,
            "componentType" : 5126,
            "count" : 20,
            "max" : [
                0.5,
                0.5,
                0.5
            ],
            "min" : [
                -0.5,
                -0.5,
                -0.5
            ],
            "type" : "VEC3"
        },
        {
            "bufferView" : 13,
            "componentType" : 5126,
            "count" : 20,
            "type" : "VEC3"
        },
        {
            "bufferView" : 14,
            "componentType" : 5126,
            "count" : 20,
            "type" : "VEC2"
        },
        {
            "bufferView" : 15,
            "componentType" : 5126,
            "count" : 20,
            "max" : [
                0.5,
                0.5,
                0.5
            ],
            "min" : [
                -0.5,
                -0.5,
                -0.5
            ],
            "type" : "VEC3"
        },
        {
            "bufferView" : 16,
            "componentType" : 5126,
            "count" : 20,
            "type" : "VEC3"
        },
        {
            "bufferView" : 17,
            "componentType" : 5126,
            "count" : 20,
            "type" : "VEC2"
        },
        {
            "bufferView" : 18,
            "componentType" : 5126,
            "count" : 184,
            "max" : [
                0.5,
                0.5,
                0.8125
            ],
            "min" : [
                -0.5,
                -0.500425398349762,
                -0.49999868869781494
            ],
            "type" : "VEC3"
        },
        {
            "bufferView" : 19,
            "componentType" : 5126,
            "count" : 184,
            "type" : "VEC3"
        },
        {
            "bufferView" : 20,
            "componentType" : 5126,
            "count" : 184,
            "type" : "VEC2"
        },
        {
            "bufferView" : 21,
            "componentType" : 5123,
            "count" : 276,
            "type" : "SCALAR"
        }
    ],
    "bufferViews" : [
        {
            "buffer" : 0,
            "byteLength" : 240,
            "byteOffset" : 0
        },
        {
            "buffer" : 0,
            "byteLength" : 240,
            "byteOffset" : 240
        },
        {
            "buffer" : 0,
            "byteLength" : 160,
            "byteOffset" : 480
        },
        {
            "buffer" : 0,
            "byteLength" : 60,
            "byteOffset" : 640
        },
        {
            "buffer" : 0,
            "byteLength" : 768,
            "byteOffset" : 700
        },
        {
            "buffer" : 0,
            "byteLength" : 768,
            "byteOffset" : 1468
        },
        {
            "buffer" : 0,
            "byteLength" : 512,
            "byteOffset" : 2236
        },
        {
            "buffer" : 0,
            "byteLength" : 216,
            "byteOffset" : 2748
        },
        {
            "buffer" : 0,
            "byteLength" : 192,
            "byteOffset" : 2964
        },
        {
            "buffer" : 0,
            "byteLength" : 192,
            "byteOffset" : 3156
        },
        {
            "buffer" : 0,
            "byteLength" : 128,
            "byteOffset" : 3348
        },
        {
            "buffer" : 0,
            "byteLength" : 48,
            "byteOffset" : 3476
        },
        {
            "buffer" : 0,
            "byteLength" : 240,
            "byteOffset" : 3524
        },
        {
            "buffer" : 0,
            "byteLength" : 240,
            "byteOffset" : 3764
        },
        {
            "buffer" : 0,
            "byteLength" : 160,
            "byteOffset" : 4004
        },
        {
            "buffer" : 0,
            "byteLength" : 240,
            "byteOffset" : 4164
        },
        {
            "buffer" : 0,
            "byteLength" : 240,
            "byteOffset" : 4404
        },
        {
            "buffer" : 0,
            "byteLength" : 160,
            "byteOffset" : 4644
        },
        {
            "buffer" : 0,
            "byteLength" : 2208,
            "byteOffset" : 4804
        },
        {
            "buffer" : 0,
            "byteLength" : 2208,
            "byteOffset" : 7012
        },
        {
            "buffer" : 0,
            "byteLength" : 1472,
            "byteOffset" : 9220
        },
        {
            "buffer" : 0,
            "byteLength" : 552,
            "byteOffset" : 10692
        }
    ],
    "samplers" : [
        {
            "magFilter" : 9728,
            "minFilter" : 9984
        }
    ],
    "buffers" : [
        {
            "byteLength" : 11244,
            "uri" : "tile_grass.bin"
        }
    ]
}
